<svg width="80" height="80" viewBox="0 0 80 80" fill="none" xmlns="http://www.w3.org/2000/svg">
<g clip-path="url(#clip0_14434_14)">
<path d="M73.3334 56.2188C78.0125 56.2188 79.8125 59.2703 79.8125 61.2172C79.8125 64.8328 65.8625 75.0031 45.5417 75.0031C16.9792 75.0031 -0.166626 56.5969 -0.166626 40.0031C-0.166626 23.7844 16.473 5.14374 45.5417 5.14374C66.2646 5.14374 79.8125 15.475 79.8125 18.9297C79.8125 20.8469 77.8277 23.9312 73.1438 23.9312C66.6188 23.9312 63.6021 15.1422 45.5396 15.1422C25.125 15.1422 13.1646 28.3594 13.1646 40.0016C13.1646 51.5687 24.9188 65.0016 45.5396 65.0016C63.8542 65 66.7709 56.2188 73.3334 56.2188Z" fill="#00DF5E"/>
</g>
<defs>
<clipPath id="clip0_14434_14">
<rect width="80" height="80" fill="white"/>
</clipPath>
</defs>
</svg>
