<svg width="70" height="66" viewBox="0 0 70 66" fill="none" xmlns="http://www.w3.org/2000/svg">
<g clip-path="url(#clip0_14301_538)">
<path d="M64.5533 58.2258L70.93 0H0L0.0833333 0.755579L6.36667 58.234L6.42 58.7123L35.1967 65.2299H35.65L64.4933 58.7069L64.5467 58.2285L64.5533 58.2258ZM35.5267 12.7171H56.1367L55.5167 18.5878L35.1833 25.9588L35.5233 27.2851H54.6033L52.4067 47.8081L35.4533 51.6403L18.5067 47.8135L17.44 37.9855H24.4167L24.9767 42.9675L25.03 43.4512L35.3133 45.6799H35.7567L45.9267 43.3751L45.9767 42.8941L46.9367 33.6912L47.0133 32.9411H16.8567L16.2233 27.0351L37.2533 19.694L36.92 18.3622H15.32L14.7033 12.709H35.5033L35.5267 12.7171Z" fill="#00DF5E"/>
</g>
<defs>
<clipPath id="clip0_14301_538">
<rect width="70" height="65.2299" fill="white"/>
</clipPath>
</defs>
</svg>
