<svg width="80" height="80" viewBox="0 0 80 80" fill="none" xmlns="http://www.w3.org/2000/svg">
<path d="M2.91675 14.9676C2.91675 6.7012 11.8517 0 22.8736 0H57.117C68.1388 0 77.0738 6.7012 77.0738 14.9676C77.0738 20.2019 73.4913 24.8088 68.0649 27.4839C73.4913 30.1592 77.0738 34.7659 77.0738 40.0003C77.0738 48.2667 68.1388 54.968 57.117 54.968H56.6836C51.5165 54.968 46.808 53.4952 43.2638 51.0788V64.8698C43.2638 73.2464 34.0953 80 22.9811 80C11.9868 80 2.91675 73.3192 2.91675 65.0323C2.91675 59.7983 6.49894 55.1917 11.9249 52.5164C6.49894 49.8411 2.91675 45.2344 2.91675 40.0003C2.91675 34.7659 6.49925 30.1592 11.9256 27.4839C6.49925 24.8088 2.91675 20.2019 2.91675 14.9676ZM36.7267 29.9355H22.8736C15.462 29.9355 9.45379 34.4417 9.45379 40.0003C9.45379 45.5375 15.4157 50.0303 22.7878 50.065C22.8163 50.0648 22.8449 50.0648 22.8736 50.0648H36.7267V29.9355ZM43.2638 40.0003C43.2638 45.5589 49.272 50.0652 56.6836 50.0652H57.117C64.5286 50.0652 70.5368 45.5589 70.5368 40.0003C70.5368 34.4417 64.5286 29.9355 57.117 29.9355H56.6836C49.272 29.9355 43.2638 34.4417 43.2638 40.0003ZM22.8736 54.968C22.8449 54.968 22.8163 54.9678 22.7878 54.9678C15.4157 55.0023 9.45379 59.4952 9.45379 65.0323C9.45379 70.5706 15.5423 75.0972 22.9811 75.0972C30.5399 75.0972 36.7267 70.4978 36.7267 64.8698V54.968H22.8736ZM22.8736 4.90278C15.462 4.90278 9.45379 9.40895 9.45379 14.9676C9.45379 20.5262 15.462 25.0323 22.8736 25.0323H36.7267V4.90278H22.8736ZM43.2638 25.0323H57.117C64.5286 25.0323 70.5368 20.5262 70.5368 14.9676C70.5368 9.40895 64.5286 4.90278 57.117 4.90278H43.2638V25.0323Z" fill="#00DF5E"/>
</svg>
