<svg width="80" height="80" viewBox="0 0 80 80" fill="none" xmlns="http://www.w3.org/2000/svg">
<g clip-path="url(#clip0_14434_16)">
<path d="M78.4911 36.8828L43.5715 6.32034C42.6048 5.47525 41.2942 5.00055 39.9277 5.00055C38.5612 5.00055 37.2506 5.47525 36.284 6.32034L29.0232 12.6688L38.2232 20.7188C43.0554 19.2907 47.6304 23.3391 45.9715 27.5438L54.8393 35.3032C60.9518 33.4594 65.7643 40.1469 61.1732 44.161C56.4429 48.3 48.6357 43.7125 51.1732 38.3266L42.8965 31.0938V50.1328C47.4143 52.0922 46.8715 56.6719 44.5179 58.7266C43.368 59.7322 41.8088 60.297 40.1831 60.297C38.5573 60.297 36.9981 59.7322 35.8482 58.7266C32.7107 55.9766 33.8715 51.3969 37.8572 49.9766V30.7578C34.1429 29.4282 33.4643 25.9547 34.5286 23.7266L25.459 15.7813L1.50895 36.7406C0.542696 37.5863 -0.00012207 38.7331 -0.00012207 39.9289C-0.00012207 41.1247 0.542696 42.2716 1.50895 43.1172L36.4393 73.6797C37.4057 74.5247 38.716 74.9994 40.0822 74.9994C41.4484 74.9994 42.7586 74.5247 43.725 73.6797L78.4911 43.2594C79.4574 42.4137 80.0002 41.2669 80.0002 40.0711C80.0002 38.8753 79.4574 37.7285 78.4911 36.8828Z" fill="#00DF5E"/>
</g>
<defs>
<clipPath id="clip0_14434_16">
<rect width="80" height="80" fill="white"/>
</clipPath>
</defs>
</svg>
