<svg width="32" height="28" viewBox="0 0 32 28" fill="none" xmlns="http://www.w3.org/2000/svg">
<path d="M7.16286 28.0001H0.528571V9.30634H7.16286V28.0001ZM3.84214 6.75634C1.72071 6.75634 0 5.21884 0 3.36259C1.51843e-08 2.47097 0.404796 1.61586 1.12534 0.985387C1.84588 0.354914 2.82314 0.000717163 3.84214 0.000717163C4.86114 0.000717163 5.83841 0.354914 6.55895 0.985387C7.27949 1.61586 7.68429 2.47097 7.68429 3.36259C7.68429 5.21884 5.96286 6.75634 3.84214 6.75634ZM31.9929 28.0001H25.3729V18.9001C25.3729 16.7313 25.3229 13.9501 21.9236 13.9501C18.4743 13.9501 17.9457 16.3063 17.9457 18.7438V28.0001H11.3186V9.30634H17.6814V11.8563H17.7743C18.66 10.3876 20.8236 8.83759 24.0514 8.83759C30.7657 8.83759 32 12.7063 32 17.7313V28.0001H31.9929Z" fill="#00DF5E"/>
</svg>
