<svg width="24" height="24" viewBox="0 0 24 24" fill="none" xmlns="http://www.w3.org/2000/svg">
<path d="M6.46875 6.14532C8.55375 3.53953 12.0188 3.53953 14.1038 6.14532C15.9788 8.48907 16.2563 12.225 14.715 14.9203L14.6738 14.9953C14.2875 15.6656 13.5375 15.825 13.0013 15.3422C12.4613 14.8594 12.3338 13.9219 12.72 13.2516L12.7613 13.1766C13.62 11.6719 13.485 9.61407 12.4388 8.30625C11.2613 6.83438 9.345 6.83438 8.16375 8.30625L3.95625 13.5703C2.77462 15.0047 2.77462 17.4375 3.95625 18.9141C4.99875 20.2219 6.64875 20.3906 7.84875 19.3172L7.90875 19.2234C8.44875 18.7828 9.19875 18.9375 9.58125 19.6125C9.9675 20.2875 9.84375 21.225 9.30375 21.7078L9.24375 21.7594C7.05375 23.6859 4.1325 23.3766 2.25787 21.0375C0.14028 18.3891 0.14028 14.0953 2.25787 11.4516L6.46875 6.14532ZM17.5313 17.8125C15.4125 20.4609 11.9813 20.4609 9.8625 17.8125C7.9875 15.4688 7.74375 11.775 9.285 9.07969L9.32625 9.00469C9.67875 8.33438 10.4288 8.175 10.9988 8.65782C11.5388 9.09844 11.6663 10.0359 11.28 10.7484L11.2388 10.8234C10.38 12.2859 10.515 14.3859 11.5613 15.6938C12.7388 17.1656 14.655 17.1656 15.8363 15.6938L20.0438 10.4297C21.225 8.95313 21.225 6.52032 20.0438 5.08594C19.0013 3.77953 17.3513 3.60891 16.1513 4.68281L16.0913 4.73438C15.5513 5.21719 14.8013 5.02032 14.4188 4.38656C14.0325 3.7125 14.1563 2.77547 14.6963 2.29406L14.7563 2.24156C16.9125 0.315516 19.8675 0.621095 21.7425 2.96438C23.8613 5.61094 23.8613 9.90469 21.7425 12.5484L17.5313 17.8125Z" fill="#00DF5E"/>
</svg>
